<svg width="105" height="62" viewBox="0 0 105 62" fill="none" xmlns="http://www.w3.org/2000/svg">
<rect width="105" height="62" fill="white"/>
<path d="M14.504 41.824C13.736 41.6 13.2 41.376 12.896 41.152C12.608 40.928 12.464 40.648 12.464 40.312C12.464 40.056 12.536 39.696 12.68 39.232C12.824 38.768 13.032 38.224 13.304 37.6C13.592 36.96 13.928 36.256 14.312 35.488C14.712 34.72 15.16 33.896 15.656 33.016C15.24 33 14.864 32.992 14.528 32.992C14.208 32.976 13.944 32.968 13.736 32.968C13.832 32.728 14.104 32.52 14.552 32.344C15 32.168 15.592 32.016 16.328 31.888C16.952 30.848 17.616 29.856 18.32 28.912C19.04 27.968 19.76 27.104 20.48 26.32C21.2 25.52 21.92 24.824 22.64 24.232C23.36 23.624 24.048 23.144 24.704 22.792C24.72 22.68 24.728 22.584 24.728 22.504C24.744 22.424 24.752 22.368 24.752 22.336C24.976 22.336 25.272 22.392 25.64 22.504C26.024 22.616 26.392 22.752 26.744 22.912C27.112 23.072 27.432 23.24 27.704 23.416C27.992 23.576 28.152 23.712 28.184 23.824C27.656 24.752 27.136 26.144 26.624 28C26.112 29.84 25.688 32.048 25.352 34.624C25.272 35.264 25.2 35.992 25.136 36.808C25.088 37.624 25.064 38.536 25.064 39.544C25.064 39.896 25.064 40.256 25.064 40.624C25.064 40.992 25.08 41.376 25.112 41.776C25.08 41.792 25.048 41.8 25.016 41.8C24.984 41.8 24.92 41.8 24.824 41.8C24.6 41.8 24.336 41.76 24.032 41.68C23.744 41.616 23.456 41.528 23.168 41.416C22.896 41.32 22.656 41.208 22.448 41.08C22.256 40.952 22.136 40.84 22.088 40.744C22.072 40.536 22.064 40.328 22.064 40.12C22.064 39.928 22.064 39.72 22.064 39.496C22.064 38.504 22.096 37.496 22.16 36.472C22.24 35.448 22.368 34.392 22.544 33.304C22.32 33.288 22.024 33.272 21.656 33.256C21.288 33.224 20.872 33.2 20.408 33.184C19.96 33.168 19.472 33.152 18.944 33.136C18.432 33.104 17.928 33.08 17.432 33.064C17.048 33.784 16.688 34.504 16.352 35.224C16.016 35.928 15.728 36.64 15.488 37.36C15.216 38.128 14.992 38.896 14.816 39.664C14.656 40.432 14.552 41.152 14.504 41.824ZM23.768 27.4C23.832 27.176 23.904 26.872 23.984 26.488C24.08 26.088 24.168 25.672 24.248 25.24C23.848 25.384 23.4 25.648 22.904 26.032C22.424 26.416 21.92 26.896 21.392 27.472C20.88 28.032 20.352 28.672 19.808 29.392C19.28 30.096 18.768 30.848 18.272 31.648C19.616 31.536 21.144 31.464 22.856 31.432C22.984 30.76 23.12 30.096 23.264 29.44C23.424 28.768 23.592 28.088 23.768 27.4ZM37.7504 38.632C38.1504 39.32 38.3504 39.984 38.3504 40.624C38.3504 40.768 38.3344 40.896 38.3024 41.008C38.2864 41.136 38.2624 41.264 38.2304 41.392C37.9584 41.36 37.6704 41.336 37.3664 41.32C37.0784 41.304 36.7744 41.296 36.4544 41.296C36.0704 41.296 35.6784 41.304 35.2784 41.32C34.8944 41.352 34.4624 41.392 33.9824 41.44C33.5024 41.488 32.9664 41.552 32.3744 41.632C31.7824 41.712 31.0944 41.816 30.3104 41.944C29.9424 41.816 29.5744 41.56 29.2064 41.176C28.8384 40.808 28.4944 40.36 28.1744 39.832C28.3344 39.48 28.5344 39.048 28.7744 38.536C29.0144 38.008 29.2944 37.376 29.6144 36.64C29.9344 35.888 30.2864 35.016 30.6704 34.024C31.0704 33.016 31.4944 31.856 31.9424 30.544C32.2304 29.68 32.4784 28.92 32.6864 28.264C32.8944 27.608 33.0784 26.976 33.2384 26.368C33.4144 25.744 33.5824 25.096 33.7424 24.424C33.9024 23.752 34.0784 22.976 34.2704 22.096C34.9104 22.224 35.4624 22.464 35.9264 22.816C36.4064 23.152 36.8624 23.64 37.2944 24.28C37.1664 24.488 36.9984 24.824 36.7904 25.288C36.5824 25.752 36.3344 26.32 36.0464 26.992C35.7744 27.648 35.4704 28.4 35.1344 29.248C34.7984 30.08 34.4464 30.976 34.0784 31.936C33.7264 32.88 33.3824 33.768 33.0464 34.6C32.7104 35.432 32.4064 36.184 32.1344 36.856C31.8784 37.528 31.6704 38.104 31.5104 38.584C31.3504 39.064 31.2704 39.424 31.2704 39.664C31.5264 39.648 31.7584 39.632 31.9664 39.616C32.1744 39.6 32.3904 39.576 32.6144 39.544C32.8384 39.496 33.0784 39.448 33.3344 39.4C33.6064 39.336 33.9264 39.256 34.2944 39.16C34.6144 39.08 34.9104 39.016 35.1824 38.968C35.4544 38.904 35.7184 38.856 35.9744 38.824C36.2464 38.776 36.5184 38.744 36.7904 38.728C37.0784 38.696 37.3984 38.664 37.7504 38.632ZM56.8428 26.776C56.8428 27.768 56.5708 28.656 56.0268 29.44C55.4828 30.208 54.7388 30.848 53.7948 31.36C54.4028 31.776 54.8828 32.288 55.2348 32.896C55.6028 33.488 55.7868 34.144 55.7868 34.864C55.7868 35.728 55.5228 36.584 54.9948 37.432C54.4828 38.264 53.7948 39.008 52.9308 39.664C52.0668 40.304 51.0828 40.824 49.9788 41.224C48.8748 41.624 47.7468 41.824 46.5948 41.824C45.3468 41.824 44.2508 41.584 43.3068 41.104C42.3788 40.64 41.6508 39.976 41.1228 39.112C41.2828 38.632 41.4908 38.04 41.7468 37.336C42.0188 36.616 42.3148 35.864 42.6348 35.08C42.9548 34.28 43.2748 33.488 43.5948 32.704C43.9308 31.92 44.2428 31.216 44.5308 30.592C45.1388 29.232 45.6828 28.104 46.1628 27.208C46.6428 26.312 47.0828 25.6 47.4828 25.072C46.6028 25.344 45.8028 25.656 45.0828 26.008C44.3628 26.344 43.8348 26.672 43.4988 26.992C43.3548 26.896 43.2028 26.752 43.0428 26.56C42.8988 26.368 42.7548 26.16 42.6108 25.936C42.4828 25.696 42.3708 25.456 42.2748 25.216C42.1948 24.976 42.1468 24.76 42.1308 24.568C42.5468 24.28 43.0828 24.008 43.7388 23.752C44.4108 23.48 45.1388 23.248 45.9228 23.056C46.7068 22.864 47.5068 22.712 48.3228 22.6C49.1548 22.488 49.9468 22.432 50.6988 22.432C52.6188 22.432 54.1228 22.816 55.2108 23.584C56.2988 24.352 56.8428 25.416 56.8428 26.776ZM47.6988 32.512C47.3948 32.368 47.1148 32.152 46.8588 31.864C46.4908 32.68 46.1388 33.48 45.8028 34.264C45.4828 35.048 45.1948 35.776 44.9388 36.448C44.6828 37.12 44.4748 37.704 44.3148 38.2C44.1548 38.696 44.0668 39.056 44.0508 39.28C44.2748 39.408 44.5388 39.504 44.8428 39.568C45.1628 39.632 45.5548 39.664 46.0188 39.664C47.1068 39.664 48.1468 39.512 49.1388 39.208C50.1308 38.904 51.0028 38.496 51.7548 37.984C52.5068 37.456 53.1068 36.856 53.5548 36.184C54.0028 35.512 54.2268 34.808 54.2268 34.072C54.2268 33.016 53.7708 32.256 52.8588 31.792C51.6108 32.304 50.2028 32.56 48.6348 32.56C48.4108 32.56 48.2348 32.56 48.1068 32.56C47.9948 32.56 47.8588 32.544 47.6988 32.512ZM52.3548 24.184C52.0188 24.184 51.6588 24.208 51.2748 24.256C50.9068 24.288 50.5148 24.344 50.0988 24.424C50.1628 24.488 50.2108 24.56 50.2428 24.64C50.2908 24.704 50.3308 24.776 50.3628 24.856C50.2188 25.048 50.0428 25.328 49.8348 25.696C49.6268 26.064 49.3948 26.496 49.1388 26.992C48.8828 27.472 48.6108 28.008 48.3228 28.6C48.0508 29.192 47.7708 29.8 47.4828 30.424C47.7548 30.36 48.0828 30.312 48.4668 30.28C48.8668 30.232 49.2588 30.208 49.6428 30.208C49.8508 30.208 50.0508 30.216 50.2428 30.232C50.4508 30.248 50.6508 30.272 50.8428 30.304C51.6108 30.176 52.2988 29.992 52.9068 29.752C53.5308 29.496 54.0668 29.208 54.5148 28.888C54.9628 28.552 55.3068 28.184 55.5468 27.784C55.7868 27.384 55.9068 26.96 55.9068 26.512C55.9068 25.744 55.6028 25.168 54.9948 24.784C54.3868 24.384 53.5068 24.184 52.3548 24.184ZM66.7728 23.848C66.0688 24.792 65.4288 25.832 64.8528 26.968C64.2768 28.104 63.7808 29.272 63.3648 30.472C62.9648 31.656 62.6528 32.832 62.4288 34C62.2208 35.152 62.1168 36.232 62.1168 37.24C62.1168 38.488 62.3008 39.392 62.6688 39.952C63.0368 40.512 63.6688 40.792 64.5648 40.792C65.6048 40.792 66.5168 40.432 67.3008 39.712C68.0848 38.976 68.8208 37.968 69.5088 36.688C69.9568 35.856 70.3408 34.944 70.6608 33.952C70.9808 32.96 71.2368 31.944 71.4288 30.904C71.6368 29.848 71.7888 28.792 71.8848 27.736C71.9808 26.664 72.0288 25.64 72.0288 24.664C72.0288 24.04 72.0208 23.584 72.0048 23.296C71.9888 23.008 71.9648 22.776 71.9328 22.6C71.9808 22.6 72.1008 22.616 72.2928 22.648C72.4848 22.68 72.7008 22.72 72.9408 22.768C73.1968 22.816 73.4448 22.88 73.6848 22.96C73.9408 23.04 74.1568 23.128 74.3328 23.224C74.2528 24.44 74.1008 25.696 73.8768 26.992C73.6688 28.288 73.3888 29.568 73.0368 30.832C72.6848 32.096 72.2768 33.312 71.8128 34.48C71.3488 35.648 70.8288 36.696 70.2528 37.624C69.4048 39 68.4528 40.072 67.3968 40.84C66.3408 41.624 65.0928 42.016 63.6528 42.016C62.1808 42.016 61.0368 41.584 60.2208 40.72C59.4048 39.872 58.9968 38.576 58.9968 36.832C58.9968 35.824 59.1088 34.688 59.3328 33.424C59.5568 32.144 59.8528 30.848 60.2208 29.536C60.6048 28.208 61.0448 26.92 61.5408 25.672C62.0368 24.408 62.5568 23.28 63.1008 22.288C63.3728 22.304 63.6928 22.36 64.0608 22.456C64.4288 22.552 64.7888 22.68 65.1408 22.84C65.4928 22.984 65.8128 23.152 66.1008 23.344C66.4048 23.52 66.6288 23.688 66.7728 23.848ZM84.2032 41.776C84.1712 41.792 84.1392 41.8 84.1072 41.8C84.0752 41.8 84.0112 41.8 83.9152 41.8C83.6912 41.8 83.4272 41.76 83.1232 41.68C82.8352 41.616 82.5472 41.528 82.2592 41.416C81.9872 41.32 81.7472 41.208 81.5392 41.08C81.3472 40.952 81.2272 40.84 81.1792 40.744C81.1632 40.52 81.1552 40.288 81.1552 40.048C81.1552 39.808 81.1552 39.576 81.1552 39.352C81.1552 37.56 81.2832 35.688 81.5392 33.736C81.8112 31.784 82.2512 29.672 82.8592 27.4C82.9232 27.176 82.9872 26.896 83.0512 26.56C83.1312 26.208 83.2112 25.832 83.2912 25.432C82.9072 25.736 82.4512 26.224 81.9232 26.896C81.3952 27.552 80.8352 28.336 80.2432 29.248C79.6672 30.144 79.0832 31.136 78.4912 32.224C77.9152 33.296 77.3872 34.392 76.9072 35.512C76.4272 36.616 76.0112 37.712 75.6592 38.8C75.3232 39.888 75.1152 40.896 75.0352 41.824C74.2672 41.6 73.7312 41.376 73.4272 41.152C73.1392 40.928 72.9952 40.656 72.9952 40.336C72.9952 40.048 73.0832 39.64 73.2592 39.112C73.4352 38.584 73.6832 37.96 74.0032 37.24C74.3232 36.52 74.7152 35.72 75.1792 34.84C75.6432 33.944 76.1552 32.984 76.7152 31.96C77.3552 30.792 77.9792 29.696 78.5872 28.672C79.2112 27.648 79.8192 26.72 80.4112 25.888C81.0032 25.056 81.5792 24.336 82.1392 23.728C82.7152 23.12 83.2832 22.656 83.8432 22.336C84.0672 22.336 84.3632 22.392 84.7312 22.504C85.1152 22.616 85.4832 22.752 85.8352 22.912C86.2032 23.072 86.5232 23.24 86.7952 23.416C87.0832 23.576 87.2432 23.712 87.2752 23.824C87.0512 24.272 86.7872 24.944 86.4832 25.84C86.1792 26.736 85.8672 27.752 85.5472 28.888C85.2432 30.024 84.9472 31.232 84.6592 32.512C84.3872 33.776 84.1712 34.992 84.0112 36.16C84.3792 35.28 84.8032 34.368 85.2832 33.424C85.7792 32.464 86.2992 31.52 86.8432 30.592C87.3872 29.648 87.9392 28.736 88.4992 27.856C89.0752 26.976 89.6352 26.176 90.1792 25.456C90.7232 24.72 91.2272 24.08 91.6912 23.536C92.1712 22.992 92.5952 22.592 92.9632 22.336C93.1872 22.336 93.4832 22.392 93.8512 22.504C94.2352 22.616 94.6032 22.752 94.9552 22.912C95.3232 23.072 95.6432 23.24 95.9152 23.416C96.2032 23.576 96.3632 23.712 96.3952 23.824C95.8832 24.736 95.4352 25.848 95.0512 27.16C94.6672 28.472 94.3392 29.848 94.0672 31.288C93.8112 32.728 93.6112 34.16 93.4672 35.584C93.3392 36.992 93.2752 38.256 93.2752 39.376C93.2752 39.744 93.2752 40.128 93.2752 40.528C93.2752 40.928 93.2912 41.344 93.3232 41.776C93.0992 41.776 92.8272 41.744 92.5072 41.68C92.2032 41.632 91.8992 41.56 91.5952 41.464C91.3072 41.368 91.0432 41.256 90.8032 41.128C90.5632 41.016 90.3952 40.888 90.2992 40.744C90.2832 40.52 90.2752 40.288 90.2752 40.048C90.2752 39.808 90.2752 39.576 90.2752 39.352C90.2752 37.56 90.4032 35.688 90.6592 33.736C90.9312 31.784 91.3712 29.672 91.9792 27.4C92.0432 27.176 92.1152 26.872 92.1952 26.488C92.2752 26.104 92.3552 25.704 92.4352 25.288C91.9872 25.512 91.4752 25.944 90.8992 26.584C90.3392 27.208 89.7632 27.976 89.1712 28.888C88.5952 29.784 88.0192 30.784 87.4432 31.888C86.8832 32.992 86.3712 34.12 85.9072 35.272C85.4592 36.408 85.0752 37.544 84.7552 38.68C84.4512 39.8 84.2672 40.832 84.2032 41.776Z" fill="black"/>
</svg>
